<svg height='300px' width='300px'  fill="#000000" xmlns="http://www.w3.org/2000/svg" xmlns:xlink="http://www.w3.org/1999/xlink" version="1.1" x="0px" y="0px" viewBox="0 0 256 256" style="enable-background:new 0 0 256 256;" xml:space="preserve"><g><g><path d="M128,3C59,3,3,59,3,128s56,125,125,125s125-56,125-125S197,3,128,3z M205.5,56.5c-42.1,34.1-80.2,83.4-109.8,144.8    c-0.7,1.4-3.2,1.3-4-0.2c-9-16.4-15.5-32.4-24.5-48.9c-4-8.5-9.1-14.6-17.9-12.7c0,0,0,0,0,0l0,0c0,0,0,0,0,0    c2.1-7.8,9.3-16.6,21.6-14c9.8,2.8,17.8,11.5,24.2,25.7C131,101.3,161.8,67,202.6,54.1C206.2,53.3,208.2,53.5,205.5,56.5z"></path></g></g></svg>